# xmcd CD database file
#
# Track frame offsets:
#	150
#	11536
#	23680
#	34393
#	45336
#	56874
#	68922
#	83015
#	93142
#	107595
#	121264
#	141039
#	173236
#	197196
#	219765
#	246973
#	262597
#	282492
#	309092
#
# Disc length: 4566 seconds
#
# Revision: 0
# Processed by: cddbd v1.4PL0 Copyright (c) Steve Scherf et al.
# Submitted via: CDex 1.50Beta7
#
DISCID=f611d413
DTITLE=rollins/getz - triomphe2-12
DYEAR=1951
DGENRE=Jazz
TTITLE0=rollins-know
TTITLE1=rollins-time on my hand
TTITLE2=rollins-mambo bounce
TTITLE3=rollins-this love is mine
TTITLE4=rollins-shadrack
TTITLE5=rollins-on e slow boat to china
TTITLE6=rollins-with a song in my heart
TTITLE7=rollins-scoops
TTITLE8=rollins-newk's fadeway
TTITLE9=rollins-whispering
TTITLE10=getz-thou swell
TTITLE11=getz-the song is you
TTITLE12=getz-mosquito knees
TTITLE13=getz-pennies from heaven
TTITLE14=getz-move
TTITLE15=getz-hershey bar
TTITLE16=getz-rubberneck
TTITLE17=getz-signal
TTITLE18=getz-jumpn' whith symphony sid
EXTD=YEAR: 1951
EXTT0=
EXTT1=
EXTT2=
EXTT3=
EXTT4=
EXTT5=
EXTT6=
EXTT7=
EXTT8=
EXTT9=
EXTT10=
EXTT11=
EXTT12=
EXTT13=
EXTT14=
EXTT15=
EXTT16=
EXTT17=
EXTT18=
PLAYORDER=
